<svg width="45" height="46" viewBox="0 0 45 46" fill="none" xmlns="http://www.w3.org/2000/svg">
<path d="M37.1798 0.5H7.82015C3.5012 0.5 0 4.0012 0 8.32015V37.6798C0 41.9988 3.5012 45.5 7.82015 45.5H37.1798C41.4988 45.5 45 41.9988 45 37.6798V8.32015C45 4.0012 41.4988 0.5 37.1798 0.5Z" fill="#142554"/>
<path d="M7.87891 21.3134V13.5373H10.4461L10.5928 14.0505H10.6661C10.7733 13.9433 10.9199 13.835 11.106 13.7279C11.5166 13.5034 11.9565 13.3906 12.4268 13.3906C12.9547 13.3906 13.4296 13.5282 13.8503 13.8012C14.0455 13.9185 14.2068 14.0505 14.3342 14.1971H14.4075C14.5542 14.0505 14.7301 13.9185 14.9354 13.8012C15.3753 13.5271 15.9337 13.3906 16.6082 13.3906C17.4294 13.3906 18.0994 13.667 18.6182 14.2197C19.1371 14.7724 19.3954 15.5236 19.3954 16.4722V21.3134H16.5349V17.0588C16.5349 16.4722 16.2901 16.1789 15.8017 16.1789C15.3133 16.1789 15.0685 16.4722 15.0685 17.0588V21.3134H12.208V17.0588C12.208 16.4722 11.9633 16.1789 11.4748 16.1789C10.9864 16.1789 10.7417 16.4722 10.7417 17.0588V21.3134H7.88116H7.87891Z" fill="#F4F4F4"/>
<path d="M22.0065 18.8188V16.1783H20.8323V13.5377H22.0065V11.1904H24.867V13.5377H26.5544V16.1783H24.867V18.159C24.867 18.5019 25.0384 18.6722 25.3802 18.6722H26.5544V21.3128H24.647C22.8863 21.3128 22.0065 20.4814 22.0065 18.8188Z" fill="#F4F4F4"/>
<path d="M7.82471 32.1531V23.2129H10.3152V32.1531H7.82471Z" fill="#F4F4F4"/>
<path d="M12.2949 31.2723C11.6136 30.6 11.2729 29.7653 11.2729 28.7693C11.2729 27.7733 11.6136 26.9386 12.2949 26.2664C12.9762 25.5941 13.8278 25.2568 14.8497 25.2568C15.8716 25.2568 16.712 25.593 17.3978 26.2664C18.0836 26.9386 18.4253 27.7733 18.4253 28.7693C18.4253 29.7653 18.0824 30.6 17.3978 31.2723C16.712 31.9445 15.8626 32.2806 14.8497 32.2806C13.8368 32.2806 12.9762 31.9445 12.2949 31.2723ZM14.0827 27.8872C13.8695 28.1083 13.7635 28.4027 13.7635 28.7682C13.7635 29.1336 13.8695 29.428 14.0827 29.6491C14.2959 29.8702 14.5508 29.9807 14.8486 29.9807C15.1464 29.9807 15.4024 29.8702 15.6145 29.6491C15.8277 29.428 15.9337 29.1336 15.9337 28.7682C15.9337 28.4027 15.8277 28.1083 15.6145 27.8872C15.4013 27.6662 15.1464 27.5556 14.8486 27.5556C14.5508 27.5556 14.2948 27.6662 14.0827 27.8872Z" fill="#F4F4F4"/>
<path d="M19.128 32.1525H21.6186C21.7032 32.4932 22.0021 32.6635 22.513 32.6635C23.1515 32.6635 23.4707 32.3657 23.4707 31.769V31.1937H23.4064C23.3127 31.2783 23.1898 31.355 23.0364 31.4239C22.7296 31.5682 22.3856 31.6404 22.0021 31.6404C21.1595 31.6404 20.459 31.3449 19.9007 30.7527C19.3423 30.1605 19.0637 29.3924 19.0637 28.4472C19.0637 27.5019 19.3423 26.7338 19.9007 26.1416C20.4579 25.5494 21.1583 25.2539 22.0021 25.2539C22.4104 25.2539 22.7939 25.352 23.1515 25.5472C23.3127 25.6408 23.4413 25.7344 23.535 25.828H23.5993L23.7267 25.3814H25.9612V31.7679C25.9612 32.7131 25.6691 33.4497 25.0859 33.9776C24.5027 34.5054 23.6444 34.7694 22.5119 34.7694C21.4652 34.7694 20.6474 34.5246 20.0597 34.0351C19.472 33.5455 19.1619 32.9173 19.1269 32.1514L19.128 32.1525ZM21.8351 29.1961C22.0224 29.3789 22.248 29.4702 22.5119 29.4702C22.7758 29.4702 23.0014 29.3789 23.1887 29.1961C23.3759 29.0134 23.4695 28.7641 23.4695 28.4494C23.4695 28.1347 23.3759 27.8854 23.1887 27.7027C23.0014 27.52 22.7758 27.4286 22.5119 27.4286C22.248 27.4286 22.0224 27.52 21.8351 27.7027C21.6479 27.8854 21.5543 28.1347 21.5543 28.4494C21.5543 28.7641 21.6479 29.0134 21.8351 29.1961Z" fill="#F4F4F4"/>
<path d="M29.601 25.3838H27.1105V32.1527H29.601V25.3838Z" fill="#F4F4F4"/>
<path d="M30.7494 32.1532V25.3843H32.985L33.1125 25.831H33.1768C33.2873 25.7373 33.4193 25.6437 33.5727 25.5501C33.9472 25.3538 34.369 25.2568 34.8371 25.2568C35.612 25.2568 36.2313 25.4971 36.696 25.9787C37.1596 26.4604 37.392 27.1135 37.392 27.9391V32.1543H34.9014V28.5787C34.9014 28.3147 34.8247 28.0993 34.6713 27.9335C34.5179 27.7677 34.3183 27.6842 34.0712 27.6842C33.8242 27.6842 33.6246 27.7677 33.4712 27.9335C33.3178 28.0993 33.2411 28.3147 33.2411 28.5787V32.1543H30.7505L30.7494 32.1532Z" fill="#F4F4F4"/>
<path d="M36.0022 15.6248H35.8612V14.9254C35.8612 13.2504 34.5279 11.8867 32.889 11.8867C31.2501 11.8867 29.9168 13.2493 29.9168 14.9254V15.6248H29.8018C29.4363 15.6248 29.1385 15.9237 29.1385 16.288V20.6498C29.1385 21.0153 29.4375 21.3131 29.8018 21.3131H36.0033C36.3688 21.3131 36.6666 21.0142 36.6666 20.6498V16.288C36.6666 15.9226 36.3677 15.6248 36.0033 15.6248H36.0022ZM33.594 18.2845C33.5229 18.412 33.4767 18.5518 33.4767 18.6985V19.629C33.4767 19.8005 33.3368 19.9404 33.1654 19.9404H32.6149C32.4435 19.9404 32.3036 19.8005 32.3036 19.629V18.7188C32.3036 18.562 32.2551 18.412 32.1807 18.2755C32.0949 18.1176 32.0611 17.9269 32.1017 17.7273C32.1649 17.4149 32.4175 17.1644 32.73 17.1035C33.2455 17.0043 33.6966 17.3968 33.6966 17.8942C33.6966 18.0364 33.6594 18.1695 33.5951 18.2856L33.594 18.2845ZM34.7569 15.6248H31.0189V14.9254C31.0189 13.8719 31.8569 13.0147 32.8879 13.0147C33.9189 13.0147 34.7569 13.8719 34.7569 14.9254V15.6248Z" fill="#46AFED"/>
<path d="M28.2441 24.7817C29.0602 24.7817 29.7217 24.2191 29.7217 23.5251C29.7217 22.8311 29.0602 22.2686 28.2441 22.2686C27.428 22.2686 26.7665 22.8311 26.7665 23.5251C26.7665 24.2191 27.428 24.7817 28.2441 24.7817Z" fill="#F4F4F4"/>
</svg>
